<svg width="1020" height="118" viewBox="0 0 1020 118" fill="none" xmlns="http://www.w3.org/2000/svg">
<path d="M0 2C0 0.895431 0.895431 0 2 0H35.1716C36.9534 0 37.8457 2.15428 36.5858 3.41421L3.41421 36.5858C2.15428 37.8457 0 36.9534 0 35.1716V2Z" fill="#A85F00"/>
<path d="M320 42C320 40.8954 320.895 40 322 40H355.172C356.953 40 357.846 42.1543 356.586 43.4142L323.414 76.5858C322.154 77.8457 320 76.9534 320 75.1716V42Z" fill="#A85F00" fill-opacity="0.75"/>
<path d="M640 42C640 40.8954 640.895 40 642 40H675.172C676.953 40 677.846 42.1543 676.586 43.4142L643.414 76.5858C642.154 77.8457 640 76.9534 640 75.1716V42Z" fill="#A85F00" fill-opacity="0.75"/>
<path d="M0 82C0 80.8954 0.895431 80 2 80H35.1716C36.9534 80 37.8457 82.1543 36.5858 83.4142L3.41421 116.586C2.15428 117.846 0 116.953 0 115.172V82Z" fill="#A85F00" fill-opacity="0.5"/>
<path d="M198 0C199.105 0 200 0.895431 200 2V35.1716C200 36.9534 197.846 37.8457 196.586 36.5858L163.414 3.41421C162.154 2.15428 163.047 0 164.828 0L198 0Z" fill="#A85F00"/>
<path d="M518 40C519.105 40 520 40.8954 520 42V75.1716C520 76.9534 517.846 77.8457 516.586 76.5858L483.414 43.4142C482.154 42.1543 483.047 40 484.828 40H518Z" fill="#A85F00" fill-opacity="0.75"/>
<path d="M838 40C839.105 40 840 40.8954 840 42V75.1716C840 76.9534 837.846 77.8457 836.586 76.5858L803.414 43.4142C802.154 42.1543 803.047 40 804.828 40H838Z" fill="#A85F00" fill-opacity="0.75"/>
<path d="M198 80C199.105 80 200 80.8954 200 82V115.172C200 116.953 197.846 117.846 196.586 116.586L163.414 83.4142C162.154 82.1543 163.047 80 164.828 80H198Z" fill="#A85F00" fill-opacity="0.5"/>
<path d="M278 0C279.105 0 280 0.895431 280 2V35.1716C280 36.9534 277.846 37.8457 276.586 36.5858L243.414 3.41421C242.154 2.15428 243.047 0 244.828 0L278 0Z" fill="#A85F00"/>
<path d="M998 40C999.105 40 1000 40.8954 1000 42V75.1716C1000 76.9534 997.846 77.8457 996.586 76.5858L963.414 43.4142C962.154 42.1543 963.047 40 964.828 40H998Z" fill="#A85F00" fill-opacity="0.75"/>
<path d="M598 40C599.105 40 600 40.8954 600 42V75.1716C600 76.9534 597.846 77.8457 596.586 76.5858L563.414 43.4142C562.154 42.1543 563.047 40 564.828 40H598Z" fill="#A85F00" fill-opacity="0.75"/>
<path d="M918 40C919.105 40 920 40.8954 920 42V75.1716C920 76.9534 917.846 77.8457 916.586 76.5858L883.414 43.4142C882.154 42.1543 883.047 40 884.828 40H918Z" fill="#A85F00" fill-opacity="0.75"/>
<path d="M278 80C279.105 80 280 80.8954 280 82V115.172C280 116.953 277.846 117.846 276.586 116.586L243.414 83.4142C242.154 82.1543 243.047 80 244.828 80H278Z" fill="#A85F00" fill-opacity="0.5"/>
<path d="M238 0C239.105 0 240 0.895431 240 2V35.1716C240 36.9534 237.846 37.8457 236.586 36.5858L203.414 3.41421C202.154 2.15428 203.047 0 204.828 0L238 0Z" fill="white"/>
<path d="M558 40C559.105 40 560 40.8954 560 42V75.1716C560 76.9534 557.846 77.8457 556.586 76.5858L523.414 43.4142C522.154 42.1543 523.047 40 524.828 40H558Z" fill="white" fill-opacity="0.75"/>
<path d="M878 40C879.105 40 880 40.8954 880 42V75.1716C880 76.9534 877.846 77.8457 876.586 76.5858L843.414 43.4142C842.154 42.1543 843.047 40 844.828 40H878Z" fill="white" fill-opacity="0.75"/>
<path d="M238 80C239.105 80 240 80.8954 240 82V115.172C240 116.953 237.846 117.846 236.586 116.586L203.414 83.4142C202.154 82.1543 203.047 80 204.828 80H238Z" fill="white" fill-opacity="0.5"/>
<path d="M318 0C319.105 0 320 0.895431 320 2V35.1716C320 36.9534 317.846 37.8457 316.586 36.5858L283.414 3.41421C282.154 2.15428 283.047 0 284.828 0L318 0Z" fill="white"/>
<path d="M1038 40C1039.1 40 1040 40.8954 1040 42V75.1716C1040 76.9534 1037.85 77.8457 1036.59 76.5858L1003.41 43.4142C1002.15 42.1543 1003.05 40 1004.83 40H1038Z" fill="white" fill-opacity="0.75"/>
<path d="M638 40C639.105 40 640 40.8954 640 42V75.1716C640 76.9534 637.846 77.8457 636.586 76.5858L603.414 43.4142C602.154 42.1543 603.047 40 604.828 40H638Z" fill="white" fill-opacity="0.75"/>
<path d="M958 40C959.105 40 960 40.8954 960 42V75.1716C960 76.9534 957.846 77.8457 956.586 76.5858L923.414 43.4142C922.154 42.1543 923.047 40 924.828 40H958Z" fill="white" fill-opacity="0.75"/>
<path d="M318 80C319.105 80 320 80.8954 320 82V115.172C320 116.953 317.846 117.846 316.586 116.586L283.414 83.4142C282.154 82.1543 283.047 80 284.828 80H318Z" fill="white" fill-opacity="0.5"/>
<path d="M40 2C40 0.895431 40.8954 0 42 0H75.1716C76.9534 0 77.8457 2.15428 76.5858 3.41421L43.4142 36.5858C42.1543 37.8457 40 36.9534 40 35.1716V2Z" fill="white"/>
<path d="M360 42C360 40.8954 360.895 40 362 40H395.172C396.953 40 397.846 42.1543 396.586 43.4142L363.414 76.5858C362.154 77.8457 360 76.9534 360 75.1716V42Z" fill="white" fill-opacity="0.75"/>
<path d="M680 42C680 40.8954 680.895 40 682 40H715.172C716.953 40 717.846 42.1543 716.586 43.4142L683.414 76.5858C682.154 77.8457 680 76.9534 680 75.1716V42Z" fill="white" fill-opacity="0.75"/>
<path d="M40 82C40 80.8954 40.8954 80 42 80H75.1716C76.9534 80 77.8457 82.1543 76.5858 83.4142L43.4142 116.586C42.1543 117.846 40 116.953 40 115.172V82Z" fill="white" fill-opacity="0.5"/>
<path d="M120 2C120 0.895431 120.895 0 122 0H155.172C156.953 0 157.846 2.15428 156.586 3.41421L123.414 36.5858C122.154 37.8457 120 36.9534 120 35.1716V2Z" fill="white"/>
<path d="M440 42C440 40.8954 440.895 40 442 40H475.172C476.953 40 477.846 42.1543 476.586 43.4142L443.414 76.5858C442.154 77.8457 440 76.9534 440 75.1716V42Z" fill="white" fill-opacity="0.75"/>
<path d="M760 42C760 40.8954 760.895 40 762 40H795.172C796.953 40 797.846 42.1543 796.586 43.4142L763.414 76.5858C762.154 77.8457 760 76.9534 760 75.1716V42Z" fill="white" fill-opacity="0.75"/>
<path d="M120 82C120 80.8954 120.895 80 122 80H155.172C156.953 80 157.846 82.1543 156.586 83.4142L123.414 116.586C122.154 117.846 120 116.953 120 115.172V82Z" fill="white" fill-opacity="0.5"/>
<path d="M80 2C80 0.895431 80.8954 0 82 0H115.172C116.953 0 117.846 2.15428 116.586 3.41421L83.4142 36.5858C82.1543 37.8457 80 36.9534 80 35.1716V2Z" fill="#A85F00"/>
<path d="M400 42C400 40.8954 400.895 40 402 40H435.172C436.953 40 437.846 42.1543 436.586 43.4142L403.414 76.5858C402.154 77.8457 400 76.9534 400 75.1716V42Z" fill="#A85F00" fill-opacity="0.75"/>
<path d="M720 42C720 40.8954 720.895 40 722 40H755.172C756.953 40 757.846 42.1543 756.586 43.4142L723.414 76.5858C722.154 77.8457 720 76.9534 720 75.1716V42Z" fill="#A85F00" fill-opacity="0.75"/>
<path d="M80 82C80 80.8954 80.8954 80 82 80H115.172C116.953 80 117.846 82.1543 116.586 83.4142L83.4142 116.586C82.1543 117.846 80 116.953 80 115.172V82Z" fill="#A85F00" fill-opacity="0.5"/>
</svg>
