<svg width="2428" height="1841" viewBox="0 0 2428 1841" fill="none" xmlns="http://www.w3.org/2000/svg">
<path d="M1.41421 1150.05C0.633164 1149.27 0.633165 1148 1.41421 1147.22L40.7256 1107.91C41.9855 1106.65 44.1398 1107.54 44.1398 1109.32L44.1398 1187.95C44.1398 1189.73 41.9855 1190.62 40.7256 1189.36L1.41421 1150.05Z" fill="#A85F00"/>
<path d="M398.672 841.07C397.891 840.289 397.891 839.023 398.672 838.242L437.984 798.93C439.244 797.67 441.398 798.563 441.398 800.344V878.967C441.398 880.749 439.244 881.641 437.984 880.381L398.672 841.07Z" fill="#A85F00" fill-opacity="0.75"/>
<path d="M751.79 487.952C751.009 487.171 751.009 485.904 751.79 485.123L791.102 445.812C792.362 444.552 794.516 445.444 794.516 447.226V525.849C794.516 527.631 792.362 528.523 791.102 527.263L751.79 487.952Z" fill="#A85F00" fill-opacity="0.75"/>
<path d="M933.867 1376.26C933.086 1375.48 933.086 1374.22 933.867 1373.44L973.178 1334.13C974.438 1332.87 976.593 1333.76 976.593 1335.54V1414.16C976.593 1415.94 974.438 1416.84 973.178 1415.58L933.867 1376.26Z" fill="#A85F00" fill-opacity="0.75"/>
<path d="M1286.99 1023.15C1286.2 1022.37 1286.2 1021.1 1286.99 1020.32L1326.3 981.007C1327.56 979.747 1329.71 980.639 1329.71 982.421V1061.04C1329.71 1062.83 1327.56 1063.72 1326.3 1062.46L1286.99 1023.15Z" fill="#A85F00" fill-opacity="0.75"/>
<path d="M89.6938 1238.33C88.9127 1237.55 88.9127 1236.28 89.6938 1235.5L129.005 1196.19C130.265 1194.93 132.419 1195.82 132.419 1197.6V1276.23C132.419 1278.01 130.265 1278.9 129.005 1277.64L89.6938 1238.33Z" fill="#A85F00" fill-opacity="0.5"/>
<path d="M624.889 1773.52C624.108 1772.74 624.108 1771.48 624.889 1770.69L664.2 1731.38C665.46 1730.12 667.614 1731.02 667.614 1732.8V1811.42C667.614 1813.2 665.46 1814.09 664.2 1812.83L624.889 1773.52Z" fill="#A85F00" fill-opacity="0.5"/>
<path d="M219.285 929.35C220.066 928.569 221.332 928.569 222.113 929.35L261.424 968.661C262.684 969.921 261.792 972.075 260.01 972.075H181.387C179.606 972.075 178.713 969.921 179.973 968.661L219.285 929.35Z" fill="#A85F00"/>
<path d="M754.48 1464.54C755.261 1463.76 756.527 1463.76 757.308 1464.54L796.619 1503.86C797.879 1505.12 796.987 1507.27 795.205 1507.27H716.582C714.801 1507.27 713.908 1505.12 715.168 1503.86L754.48 1464.54Z" fill="#A85F00"/>
<path d="M616.543 620.371C617.324 619.59 618.59 619.59 619.371 620.371L658.682 659.682C659.942 660.942 659.05 663.097 657.268 663.097H578.646C576.864 663.097 575.971 660.942 577.231 659.682L616.543 620.371Z" fill="#A85F00" fill-opacity="0.75"/>
<path d="M969.661 267.253C970.442 266.472 971.708 266.472 972.489 267.253L1011.8 306.564C1013.06 307.824 1012.17 309.978 1010.39 309.978H931.764C929.982 309.978 929.09 307.824 930.35 306.564L969.661 267.253Z" fill="#A85F00" fill-opacity="0.75"/>
<path d="M1151.74 1155.57C1152.52 1154.78 1153.79 1154.78 1154.57 1155.57L1193.88 1194.88C1195.14 1196.14 1194.25 1198.29 1192.46 1198.29H1113.84C1112.06 1198.29 1111.17 1196.14 1112.43 1194.88L1151.74 1155.57Z" fill="#A85F00" fill-opacity="0.75"/>
<path d="M1504.86 802.448C1505.64 801.667 1506.9 801.667 1507.68 802.448L1547 841.759C1548.26 843.019 1547.36 845.173 1545.58 845.173H1466.96C1465.18 845.173 1464.28 843.019 1465.54 841.759L1504.86 802.448Z" fill="#A85F00" fill-opacity="0.75"/>
<path d="M307.564 1017.63C308.345 1016.85 309.612 1016.85 310.393 1017.63L349.704 1056.94C350.964 1058.2 350.072 1060.35 348.29 1060.35H269.667C267.885 1060.35 266.993 1058.2 268.253 1056.94L307.564 1017.63Z" fill="#A85F00" fill-opacity="0.5"/>
<path d="M842.759 1552.82C843.54 1552.04 844.807 1552.04 845.588 1552.82L884.899 1592.14C886.159 1593.4 885.267 1595.55 883.485 1595.55H804.862C803.08 1595.55 802.188 1593.4 803.448 1592.14L842.759 1552.82Z" fill="#A85F00" fill-opacity="0.5"/>
<path d="M307.564 841.07C308.345 840.289 309.612 840.289 310.393 841.07L349.704 880.381C350.964 881.641 350.072 883.796 348.29 883.796H269.667C267.885 883.796 266.993 881.641 268.253 880.381L307.564 841.07Z" fill="#A85F00"/>
<path d="M842.759 1376.26C843.54 1375.48 844.807 1375.48 845.588 1376.26L884.899 1415.58C886.159 1416.84 885.267 1418.99 883.485 1418.99H804.862C803.08 1418.99 802.188 1416.84 803.448 1415.58L842.759 1376.26Z" fill="#A85F00"/>
<path d="M704.822 532.092C705.603 531.311 706.87 531.311 707.651 532.092L746.962 571.403C748.222 572.663 747.33 574.817 745.548 574.817H666.925C665.143 574.817 664.251 572.663 665.511 571.403L704.822 532.092Z" fill="#A85F00" fill-opacity="0.75"/>
<path d="M1146.22 90.6938C1147 89.9127 1148.27 89.9127 1149.05 90.6938L1188.36 130.005C1189.62 131.265 1188.73 133.419 1186.95 133.419H1108.32C1106.54 133.419 1105.65 131.265 1106.91 130.005L1146.22 90.6938Z" fill="#A85F00" fill-opacity="0.75"/>
<path d="M1681.41 625.889C1682.2 625.108 1683.46 625.108 1684.24 625.889L1723.55 665.2C1724.81 666.46 1723.92 668.614 1722.14 668.614H1643.52C1641.74 668.614 1640.84 666.46 1642.1 665.2L1681.41 625.889Z" fill="#A85F00" fill-opacity="0.75"/>
<path d="M1057.94 178.973C1058.72 178.192 1059.99 178.192 1060.77 178.973L1100.08 218.285C1101.34 219.545 1100.45 221.699 1098.67 221.699H1020.04C1018.26 221.699 1017.37 219.545 1018.63 218.285L1057.94 178.973Z" fill="#A85F00" fill-opacity="0.75"/>
<path d="M1240.02 1067.29C1240.8 1066.51 1242.06 1066.51 1242.85 1067.29L1282.16 1106.6C1283.42 1107.86 1282.52 1110.01 1280.74 1110.01H1202.12C1200.34 1110.01 1199.45 1107.86 1200.71 1106.6L1240.02 1067.29Z" fill="#A85F00" fill-opacity="0.75"/>
<path d="M1593.14 714.168C1593.92 713.387 1595.18 713.387 1595.96 714.168L1635.28 753.48C1636.54 754.74 1635.64 756.894 1633.86 756.894H1555.24C1553.46 756.894 1552.56 754.74 1553.82 753.48L1593.14 714.168Z" fill="#A85F00" fill-opacity="0.75"/>
<path d="M395.844 929.35C396.625 928.569 397.891 928.569 398.672 929.35L437.984 968.661C439.244 969.921 438.351 972.075 436.569 972.075H357.947C356.165 972.075 355.273 969.921 356.532 968.661L395.844 929.35Z" fill="#A85F00" fill-opacity="0.5"/>
<path d="M931.039 1464.54C931.82 1463.76 933.086 1463.76 933.867 1464.54L973.178 1503.86C974.438 1505.12 973.546 1507.27 971.764 1507.27H893.142C891.36 1507.27 890.467 1505.12 891.727 1503.86L931.039 1464.54Z" fill="#A85F00" fill-opacity="0.5"/>
<path d="M263.424 885.21C264.205 884.429 265.472 884.429 266.253 885.21L305.564 924.521C306.824 925.781 305.932 927.935 304.15 927.935H225.527C223.745 927.935 222.853 925.781 224.113 924.521L263.424 885.21Z" fill="white"/>
<path d="M798.619 1420.4C799.4 1419.62 800.667 1419.62 801.448 1420.4L840.759 1459.72C842.019 1460.98 841.127 1463.13 839.345 1463.13H760.722C758.94 1463.13 758.048 1460.98 759.308 1459.72L798.619 1420.4Z" fill="white"/>
<path d="M660.682 576.231C661.464 575.45 662.73 575.45 663.511 576.231L702.822 615.543C704.082 616.803 703.19 618.957 701.408 618.957H622.785C621.004 618.957 620.111 616.803 621.371 615.543L660.682 576.231Z" fill="white" fill-opacity="0.75"/>
<path d="M1013.8 223.113C1014.58 222.332 1015.85 222.332 1016.63 223.113L1055.94 262.424C1057.2 263.684 1056.31 265.839 1054.53 265.839H975.904C974.122 265.839 973.23 263.684 974.49 262.424L1013.8 223.113Z" fill="white" fill-opacity="0.75"/>
<path d="M1195.88 1111.43C1196.66 1110.65 1197.92 1110.65 1198.71 1111.43L1238.02 1150.74C1239.28 1152 1238.38 1154.15 1236.6 1154.15H1157.98C1156.2 1154.15 1155.31 1152 1156.57 1150.74L1195.88 1111.43Z" fill="white" fill-opacity="0.75"/>
<path d="M1549 758.308C1549.78 757.527 1551.04 757.527 1551.82 758.308L1591.14 797.619C1592.4 798.879 1591.5 801.033 1589.72 801.033H1511.1C1509.32 801.033 1508.42 798.879 1509.68 797.619L1549 758.308Z" fill="white" fill-opacity="0.75"/>
<path d="M351.704 973.489C352.485 972.708 353.751 972.708 354.532 973.489L393.844 1012.8C395.104 1014.06 394.211 1016.21 392.43 1016.21H313.807C312.025 1016.21 311.133 1014.06 312.393 1012.8L351.704 973.489Z" fill="white" fill-opacity="0.5"/>
<path d="M886.899 1508.68C887.68 1507.9 888.946 1507.9 889.727 1508.68L929.039 1548C930.298 1549.26 929.406 1551.41 927.624 1551.41H849.002C847.22 1551.41 846.327 1549.26 847.587 1548L886.899 1508.68Z" fill="white" fill-opacity="0.5"/>
<path d="M351.704 796.93C352.485 796.149 353.751 796.149 354.532 796.93L393.844 836.242C395.104 837.502 394.211 839.656 392.43 839.656H313.807C312.025 839.656 311.133 837.501 312.393 836.242L351.704 796.93Z" fill="white"/>
<path d="M886.899 1332.13C887.68 1331.34 888.946 1331.34 889.727 1332.13L929.039 1371.44C930.298 1372.7 929.406 1374.85 927.624 1374.85H849.002C847.22 1374.85 846.327 1372.7 847.587 1371.44L886.899 1332.13Z" fill="white"/>
<path d="M748.962 487.952C749.743 487.171 751.009 487.171 751.79 487.952L791.102 527.263C792.362 528.523 791.469 530.677 789.688 530.677H711.065C709.283 530.677 708.391 528.523 709.651 527.263L748.962 487.952Z" fill="white" fill-opacity="0.75"/>
<path d="M1190.36 46.5541C1191.14 45.7731 1192.41 45.7731 1193.19 46.5541L1232.5 85.8655C1233.76 87.1254 1232.87 89.2797 1231.09 89.2797H1152.46C1150.68 89.2797 1149.79 87.1254 1151.05 85.8655L1190.36 46.5541Z" fill="white" fill-opacity="0.75"/>
<path d="M1725.55 581.749C1726.34 580.968 1727.6 580.968 1728.38 581.749L1767.69 621.06C1768.95 622.32 1768.06 624.474 1766.28 624.474H1687.66C1685.88 624.474 1684.98 622.32 1686.24 621.06L1725.55 581.749Z" fill="white" fill-opacity="0.75"/>
<path d="M1102.08 134.834C1102.86 134.052 1104.13 134.052 1104.91 134.834L1144.22 174.145C1145.48 175.405 1144.59 177.559 1142.81 177.559H1064.18C1062.4 177.559 1061.51 175.405 1062.77 174.145L1102.08 134.834Z" fill="white" fill-opacity="0.75"/>
<path d="M1284.16 1023.15C1284.94 1022.37 1286.2 1022.37 1286.99 1023.15L1326.3 1062.46C1327.56 1063.72 1326.66 1065.87 1324.88 1065.87H1246.26C1244.48 1065.87 1243.59 1063.72 1244.85 1062.46L1284.16 1023.15Z" fill="white" fill-opacity="0.75"/>
<path d="M1637.27 670.028C1638.06 669.247 1639.32 669.247 1640.1 670.028L1679.41 709.34C1680.67 710.6 1679.78 712.754 1678 712.754H1599.38C1597.6 712.754 1596.7 710.6 1597.96 709.34L1637.27 670.028Z" fill="white" fill-opacity="0.75"/>
<path d="M439.984 885.21C440.765 884.429 442.031 884.429 442.812 885.21L482.123 924.521C483.383 925.781 482.491 927.935 480.709 927.935H402.086C400.305 927.935 399.412 925.781 400.672 924.521L439.984 885.21Z" fill="white" fill-opacity="0.5"/>
<path d="M975.178 1420.4C975.959 1419.62 977.226 1419.62 978.007 1420.4L1017.32 1459.72C1018.58 1460.98 1017.69 1463.13 1015.9 1463.13H937.281C935.499 1463.13 934.607 1460.98 935.867 1459.72L975.178 1420.4Z" fill="white" fill-opacity="0.5"/>
<path d="M45.554 1105.91C44.7729 1105.13 44.7729 1103.86 45.554 1103.08L84.8653 1063.77C86.1253 1062.51 88.2796 1063.4 88.2796 1065.18V1143.81C88.2796 1145.59 86.1253 1146.48 84.8653 1145.22L45.554 1105.91Z" fill="white"/>
<path d="M580.749 1641.1C579.968 1640.32 579.968 1639.06 580.749 1638.28L620.06 1598.96C621.32 1597.7 623.474 1598.6 623.474 1600.38V1679C623.474 1680.78 621.32 1681.67 620.06 1680.41L580.749 1641.1Z" fill="white"/>
<path d="M442.812 796.93C442.031 796.149 442.031 794.883 442.812 794.102L482.123 754.79C483.383 753.531 485.538 754.423 485.538 756.205V834.827C485.538 836.609 483.383 837.501 482.123 836.242L442.812 796.93Z" fill="white" fill-opacity="0.75"/>
<path d="M795.93 443.812C795.149 443.031 795.149 441.765 795.93 440.984L835.242 401.672C836.502 400.412 838.656 401.305 838.656 403.086V481.709C838.656 483.491 836.502 484.383 835.242 483.123L795.93 443.812Z" fill="white" fill-opacity="0.75"/>
<path d="M978.007 1332.13C977.226 1331.34 977.226 1330.08 978.007 1329.3L1017.32 1289.99C1018.58 1288.73 1020.73 1289.62 1020.73 1291.4V1370.02C1020.73 1371.8 1018.58 1372.7 1017.32 1371.44L978.007 1332.13Z" fill="white" fill-opacity="0.75"/>
<path d="M1331.13 979.007C1330.34 978.226 1330.34 976.959 1331.13 976.178L1370.44 936.867C1371.7 935.607 1373.85 936.499 1373.85 938.281V1016.9C1373.85 1018.69 1371.7 1019.58 1370.44 1018.32L1331.13 979.007Z" fill="white" fill-opacity="0.75"/>
<path d="M133.834 1194.19C133.052 1193.41 133.052 1192.14 133.834 1191.36L173.145 1152.05C174.405 1150.79 176.559 1151.68 176.559 1153.46V1232.09C176.559 1233.87 174.405 1234.76 173.145 1233.5L133.834 1194.19Z" fill="white" fill-opacity="0.5"/>
<path d="M669.028 1729.38C668.247 1728.6 668.247 1727.34 669.028 1726.55L708.34 1687.24C709.6 1685.98 711.754 1686.88 711.754 1688.66V1767.28C711.754 1769.06 709.6 1769.95 708.34 1768.69L669.028 1729.38Z" fill="white" fill-opacity="0.5"/>
<path d="M133.834 1017.63C133.052 1016.85 133.052 1015.58 133.834 1014.8L173.145 975.489C174.405 974.229 176.559 975.122 176.559 976.904V1055.53C176.559 1057.31 174.405 1058.2 173.145 1056.94L133.834 1017.63Z" fill="white"/>
<path d="M669.028 1552.82C668.247 1552.04 668.247 1550.78 669.028 1550L708.34 1510.68C709.6 1509.42 711.754 1510.32 711.754 1512.1V1590.72C711.754 1592.5 709.6 1593.4 708.34 1592.14L669.028 1552.82Z" fill="white"/>
<path d="M531.092 708.651C530.311 707.87 530.311 706.603 531.092 705.822L570.403 666.511C571.663 665.251 573.817 666.143 573.817 667.925V746.548C573.817 748.33 571.663 749.222 570.403 747.962L531.092 708.651Z" fill="white" fill-opacity="0.75"/>
<path d="M884.21 355.533C883.429 354.751 883.429 353.485 884.21 352.704L923.521 313.393C924.781 312.133 926.935 313.025 926.935 314.807V393.43C926.935 395.211 924.781 396.104 923.521 394.844L884.21 355.533Z" fill="white" fill-opacity="0.75"/>
<path d="M1066.29 1243.85C1065.51 1243.06 1065.51 1241.8 1066.29 1241.02L1105.6 1201.71C1106.86 1200.45 1109.01 1201.34 1109.01 1203.12V1281.74C1109.01 1283.52 1106.86 1284.42 1105.6 1283.16L1066.29 1243.85Z" fill="white" fill-opacity="0.75"/>
<path d="M1419.4 890.727C1418.62 889.946 1418.62 888.68 1419.4 887.899L1458.72 848.588C1459.98 847.328 1462.13 848.22 1462.13 850.002V928.624C1462.13 930.406 1459.98 931.299 1458.72 930.039L1419.4 890.727Z" fill="white" fill-opacity="0.75"/>
<path d="M222.113 1105.91C221.332 1105.13 221.332 1103.86 222.113 1103.08L261.424 1063.77C262.684 1062.51 264.839 1063.4 264.839 1065.18V1143.81C264.839 1145.59 262.684 1146.48 261.424 1145.22L222.113 1105.91Z" fill="white" fill-opacity="0.5"/>
<path d="M757.308 1641.1C756.527 1640.32 756.527 1639.06 757.308 1638.28L796.619 1598.96C797.879 1597.7 800.034 1598.6 800.034 1600.38V1679C800.034 1680.78 797.879 1681.67 796.619 1680.41L757.308 1641.1Z" fill="white" fill-opacity="0.5"/>
<path d="M89.6938 1061.77C88.9127 1060.99 88.9127 1059.72 89.6938 1058.94L129.005 1019.63C130.265 1018.37 132.419 1019.26 132.419 1021.04V1099.67C132.419 1101.45 130.265 1102.34 129.005 1101.08L89.6938 1061.77Z" fill="#A85F00"/>
<path d="M624.889 1596.96C624.108 1596.18 624.108 1594.92 624.889 1594.14L664.2 1554.82C665.46 1553.56 667.614 1554.46 667.614 1556.24V1634.86C667.614 1636.64 665.46 1637.54 664.2 1636.28L624.889 1596.96Z" fill="#A85F00"/>
<path d="M486.952 752.79C486.171 752.009 486.171 750.743 486.952 749.962L526.263 710.651C527.523 709.391 529.677 710.283 529.677 712.065V790.688C529.677 792.469 527.523 793.362 526.263 792.102L486.952 752.79Z" fill="#A85F00" fill-opacity="0.75"/>
<path d="M840.07 399.672C839.289 398.891 839.289 397.625 840.07 396.844L879.381 357.532C880.641 356.273 882.796 357.165 882.796 358.947V437.569C882.796 439.351 880.641 440.244 879.381 438.984L840.07 399.672Z" fill="#A85F00" fill-opacity="0.75"/>
<path d="M1022.15 1287.99C1021.37 1287.2 1021.37 1285.94 1022.15 1285.16L1061.46 1245.85C1062.72 1244.59 1064.87 1245.48 1064.87 1247.26V1325.88C1064.87 1327.66 1062.72 1328.56 1061.46 1327.3L1022.15 1287.99Z" fill="#A85F00" fill-opacity="0.75"/>
<path d="M1375.26 934.867C1374.48 934.086 1374.48 932.82 1375.26 932.039L1414.58 892.727C1415.84 891.467 1417.99 892.36 1417.99 894.142V972.764C1417.99 974.546 1415.84 975.438 1414.58 974.178L1375.26 934.867Z" fill="#A85F00" fill-opacity="0.75"/>
<path d="M177.973 1150.05C177.192 1149.27 177.192 1148 177.973 1147.22L217.285 1107.91C218.545 1106.65 220.699 1107.54 220.699 1109.32V1187.95C220.699 1189.73 218.545 1190.62 217.285 1189.36L177.973 1150.05Z" fill="#A85F00" fill-opacity="0.5"/>
<path d="M713.168 1685.24C712.387 1684.46 712.387 1683.2 713.168 1682.41L752.479 1643.1C753.739 1641.84 755.894 1642.74 755.894 1644.52V1723.14C755.894 1724.92 753.739 1725.81 752.479 1724.55L713.168 1685.24Z" fill="#A85F00" fill-opacity="0.5"/>
<path d="M285.414 1174.05C284.633 1173.27 284.633 1172 285.414 1171.22L324.726 1131.91C325.985 1130.65 328.14 1131.54 328.14 1133.32V1211.95C328.14 1213.73 325.985 1214.62 324.726 1213.36L285.414 1174.05Z" fill="#A85F00"/>
<path d="M682.672 865.07C681.891 864.289 681.891 863.023 682.672 862.242L721.984 822.93C723.244 821.67 725.398 822.563 725.398 824.344V902.967C725.398 904.749 723.244 905.641 721.984 904.381L682.672 865.07Z" fill="#A85F00" fill-opacity="0.75"/>
<path d="M1035.79 511.952C1035.01 511.171 1035.01 509.904 1035.79 509.123L1075.1 469.812C1076.36 468.552 1078.52 469.444 1078.52 471.226V549.849C1078.52 551.631 1076.36 552.523 1075.1 551.263L1035.79 511.952Z" fill="#A85F00" fill-opacity="0.75"/>
<path d="M1217.87 1400.26C1217.09 1399.48 1217.09 1398.22 1217.87 1397.44L1257.18 1358.13C1258.44 1356.87 1260.59 1357.76 1260.59 1359.54V1438.16C1260.59 1439.94 1258.44 1440.84 1257.18 1439.58L1217.87 1400.26Z" fill="#A85F00" fill-opacity="0.75"/>
<path d="M1570.99 1047.15C1570.2 1046.37 1570.2 1045.1 1570.99 1044.32L1610.3 1005.01C1611.56 1003.75 1613.71 1004.64 1613.71 1006.42V1085.04C1613.71 1086.83 1611.56 1087.72 1610.3 1086.46L1570.99 1047.15Z" fill="#A85F00" fill-opacity="0.75"/>
<path d="M373.694 1262.33C372.913 1261.55 372.913 1260.28 373.694 1259.5L413.005 1220.19C414.265 1218.93 416.419 1219.82 416.419 1221.6V1300.23C416.419 1302.01 414.265 1302.9 413.005 1301.64L373.694 1262.33Z" fill="#A85F00" fill-opacity="0.5"/>
<path d="M908.889 1797.52C908.108 1796.74 908.108 1795.48 908.889 1794.69L948.2 1755.38C949.46 1754.12 951.614 1755.02 951.614 1756.8V1835.42C951.614 1837.2 949.46 1838.09 948.2 1836.83L908.889 1797.52Z" fill="#A85F00" fill-opacity="0.5"/>
<path d="M503.285 953.35C504.066 952.569 505.332 952.569 506.113 953.35L545.424 992.661C546.684 993.921 545.792 996.075 544.01 996.075H465.387C463.606 996.075 462.713 993.921 463.973 992.661L503.285 953.35Z" fill="#A85F00"/>
<path d="M1038.48 1488.54C1039.26 1487.76 1040.53 1487.76 1041.31 1488.54L1080.62 1527.86C1081.88 1529.12 1080.99 1531.27 1079.21 1531.27H1000.58C998.801 1531.27 997.908 1529.12 999.168 1527.86L1038.48 1488.54Z" fill="#A85F00"/>
<path d="M900.543 644.371C901.324 643.59 902.59 643.59 903.371 644.371L942.683 683.682C943.943 684.942 943.05 687.097 941.268 687.097H862.646C860.864 687.097 859.972 684.942 861.231 683.682L900.543 644.371Z" fill="#A85F00" fill-opacity="0.75"/>
<path d="M1253.66 291.253C1254.44 290.472 1255.71 290.472 1256.49 291.253L1295.8 330.564C1297.06 331.824 1296.17 333.978 1294.39 333.978H1215.76C1213.98 333.978 1213.09 331.824 1214.35 330.564L1253.66 291.253Z" fill="#A85F00" fill-opacity="0.75"/>
<path d="M1435.74 1179.57C1436.52 1178.78 1437.79 1178.78 1438.57 1179.57L1477.88 1218.88C1479.14 1220.14 1478.25 1222.29 1476.46 1222.29H1397.84C1396.06 1222.29 1395.17 1220.14 1396.43 1218.88L1435.74 1179.57Z" fill="#A85F00" fill-opacity="0.75"/>
<path d="M1788.86 826.448C1789.64 825.667 1790.9 825.667 1791.68 826.448L1831 865.759C1832.26 867.019 1831.36 869.173 1829.58 869.173H1750.96C1749.18 869.173 1748.28 867.019 1749.54 865.759L1788.86 826.448Z" fill="#A85F00" fill-opacity="0.75"/>
<path d="M591.564 1041.63C592.345 1040.85 593.612 1040.85 594.393 1041.63L633.704 1080.94C634.964 1082.2 634.072 1084.35 632.29 1084.35H553.667C551.885 1084.35 550.993 1082.2 552.253 1080.94L591.564 1041.63Z" fill="#A85F00" fill-opacity="0.5"/>
<path d="M1126.76 1576.82C1127.54 1576.04 1128.81 1576.04 1129.59 1576.82L1168.9 1616.14C1170.16 1617.4 1169.27 1619.55 1167.48 1619.55H1088.86C1087.08 1619.55 1086.19 1617.4 1087.45 1616.14L1126.76 1576.82Z" fill="#A85F00" fill-opacity="0.5"/>
<path d="M591.564 865.07C592.345 864.289 593.612 864.289 594.393 865.07L633.704 904.381C634.964 905.641 634.072 907.796 632.29 907.796H553.667C551.885 907.796 550.993 905.641 552.253 904.381L591.564 865.07Z" fill="#A85F00"/>
<path d="M1126.76 1400.26C1127.54 1399.48 1128.81 1399.48 1129.59 1400.26L1168.9 1439.58C1170.16 1440.84 1169.27 1442.99 1167.48 1442.99H1088.86C1087.08 1442.99 1086.19 1440.84 1087.45 1439.58L1126.76 1400.26Z" fill="#A85F00"/>
<path d="M988.822 556.092C989.603 555.311 990.87 555.311 991.651 556.092L1030.96 595.403C1032.22 596.663 1031.33 598.817 1029.55 598.817H950.925C949.143 598.817 948.251 596.663 949.511 595.403L988.822 556.092Z" fill="#A85F00" fill-opacity="0.75"/>
<path d="M1430.22 114.694C1431 113.913 1432.27 113.913 1433.05 114.694L1472.36 154.005C1473.62 155.265 1472.73 157.419 1470.95 157.419H1392.32C1390.54 157.419 1389.65 155.265 1390.91 154.005L1430.22 114.694Z" fill="#A85F00" fill-opacity="0.75"/>
<path d="M1965.41 649.889C1966.2 649.108 1967.46 649.108 1968.24 649.889L2007.55 689.2C2008.81 690.46 2007.92 692.614 2006.14 692.614H1927.52C1925.74 692.614 1924.84 690.46 1926.1 689.2L1965.41 649.889Z" fill="#A85F00" fill-opacity="0.75"/>
<path d="M1341.94 202.973C1342.72 202.192 1343.99 202.192 1344.77 202.973L1384.08 242.285C1385.34 243.545 1384.45 245.699 1382.67 245.699H1304.04C1302.26 245.699 1301.37 243.545 1302.63 242.285L1341.94 202.973Z" fill="#A85F00" fill-opacity="0.75"/>
<path d="M1524.02 1091.29C1524.8 1090.51 1526.06 1090.51 1526.85 1091.29L1566.16 1130.6C1567.42 1131.86 1566.52 1134.01 1564.74 1134.01H1486.12C1484.34 1134.01 1483.45 1131.86 1484.71 1130.6L1524.02 1091.29Z" fill="#A85F00" fill-opacity="0.75"/>
<path d="M1877.14 738.168C1877.92 737.387 1879.18 737.387 1879.96 738.168L1919.28 777.48C1920.54 778.74 1919.64 780.894 1917.86 780.894H1839.24C1837.46 780.894 1836.56 778.74 1837.82 777.48L1877.14 738.168Z" fill="#A85F00" fill-opacity="0.75"/>
<path d="M679.844 953.35C680.625 952.569 681.891 952.569 682.672 953.35L721.984 992.661C723.244 993.921 722.351 996.075 720.569 996.075H641.947C640.165 996.075 639.273 993.921 640.532 992.661L679.844 953.35Z" fill="#A85F00" fill-opacity="0.5"/>
<path d="M1215.04 1488.54C1215.82 1487.76 1217.09 1487.76 1217.87 1488.54L1257.18 1527.86C1258.44 1529.12 1257.55 1531.27 1255.76 1531.27H1177.14C1175.36 1531.27 1174.47 1529.12 1175.73 1527.86L1215.04 1488.54Z" fill="#A85F00" fill-opacity="0.5"/>
<path d="M547.424 909.21C548.205 908.429 549.472 908.429 550.253 909.21L589.564 948.521C590.824 949.781 589.932 951.935 588.15 951.935H509.527C507.745 951.935 506.853 949.781 508.113 948.521L547.424 909.21Z" fill="white"/>
<path d="M1082.62 1444.4C1083.4 1443.62 1084.67 1443.62 1085.45 1444.4L1124.76 1483.72C1126.02 1484.98 1125.13 1487.13 1123.34 1487.13H1044.72C1042.94 1487.13 1042.05 1484.98 1043.31 1483.72L1082.62 1444.4Z" fill="white"/>
<path d="M944.682 600.231C945.464 599.45 946.73 599.45 947.511 600.231L986.822 639.543C988.082 640.803 987.19 642.957 985.408 642.957H906.785C905.004 642.957 904.111 640.803 905.371 639.543L944.682 600.231Z" fill="white" fill-opacity="0.75"/>
<path d="M1297.8 247.113C1298.58 246.332 1299.85 246.332 1300.63 247.113L1339.94 286.424C1341.2 287.684 1340.31 289.839 1338.53 289.839H1259.9C1258.12 289.839 1257.23 287.684 1258.49 286.424L1297.8 247.113Z" fill="white" fill-opacity="0.75"/>
<path d="M1479.88 1135.43C1480.66 1134.65 1481.92 1134.65 1482.71 1135.43L1522.02 1174.74C1523.28 1176 1522.38 1178.15 1520.6 1178.15H1441.98C1440.2 1178.15 1439.31 1176 1440.57 1174.74L1479.88 1135.43Z" fill="white" fill-opacity="0.75"/>
<path d="M1833 782.308C1833.78 781.527 1835.04 781.527 1835.82 782.308L1875.14 821.619C1876.4 822.879 1875.5 825.033 1873.72 825.033H1795.1C1793.32 825.033 1792.42 822.879 1793.68 821.619L1833 782.308Z" fill="white" fill-opacity="0.75"/>
<path d="M635.704 997.489C636.485 996.708 637.751 996.708 638.532 997.489L677.844 1036.8C679.104 1038.06 678.211 1040.21 676.43 1040.21H597.807C596.025 1040.21 595.133 1038.06 596.393 1036.8L635.704 997.489Z" fill="white" fill-opacity="0.5"/>
<path d="M1170.9 1532.68C1171.68 1531.9 1172.95 1531.9 1173.73 1532.68L1213.04 1572C1214.3 1573.26 1213.41 1575.41 1211.62 1575.41H1133C1131.22 1575.41 1130.33 1573.26 1131.59 1572L1170.9 1532.68Z" fill="white" fill-opacity="0.5"/>
<path d="M635.704 820.93C636.485 820.149 637.751 820.149 638.532 820.93L677.844 860.242C679.104 861.502 678.211 863.656 676.43 863.656H597.807C596.025 863.656 595.133 861.501 596.393 860.242L635.704 820.93Z" fill="white"/>
<path d="M1170.9 1356.13C1171.68 1355.34 1172.95 1355.34 1173.73 1356.13L1213.04 1395.44C1214.3 1396.7 1213.41 1398.85 1211.62 1398.85H1133C1131.22 1398.85 1130.33 1396.7 1131.59 1395.44L1170.9 1356.13Z" fill="white"/>
<path d="M1032.96 511.952C1033.74 511.171 1035.01 511.171 1035.79 511.952L1075.1 551.263C1076.36 552.523 1075.47 554.677 1073.69 554.677H995.065C993.283 554.677 992.391 552.523 993.651 551.263L1032.96 511.952Z" fill="white" fill-opacity="0.75"/>
<path d="M1474.36 70.5541C1475.14 69.7731 1476.41 69.7731 1477.19 70.5541L1516.5 109.865C1517.76 111.125 1516.87 113.28 1515.09 113.28H1436.46C1434.68 113.28 1433.79 111.125 1435.05 109.865L1474.36 70.5541Z" fill="white" fill-opacity="0.75"/>
<path d="M2009.55 605.749C2010.34 604.968 2011.6 604.968 2012.38 605.749L2051.69 645.06C2052.95 646.32 2052.06 648.474 2050.28 648.474H1971.66C1969.88 648.474 1968.98 646.32 1970.24 645.06L2009.55 605.749Z" fill="white" fill-opacity="0.75"/>
<path d="M1386.08 158.834C1386.86 158.052 1388.13 158.052 1388.91 158.834L1428.22 198.145C1429.48 199.405 1428.59 201.559 1426.81 201.559H1348.18C1346.4 201.559 1345.51 199.405 1346.77 198.145L1386.08 158.834Z" fill="white" fill-opacity="0.75"/>
<path d="M1568.16 1047.15C1568.94 1046.37 1570.2 1046.37 1570.99 1047.15L1610.3 1086.46C1611.56 1087.72 1610.66 1089.87 1608.88 1089.87H1530.26C1528.48 1089.87 1527.59 1087.72 1528.85 1086.46L1568.16 1047.15Z" fill="white" fill-opacity="0.75"/>
<path d="M1921.27 694.028C1922.06 693.247 1923.32 693.247 1924.1 694.028L1963.41 733.34C1964.67 734.6 1963.78 736.754 1962 736.754H1883.38C1881.6 736.754 1880.7 734.6 1881.96 733.34L1921.27 694.028Z" fill="white" fill-opacity="0.75"/>
<path d="M723.983 909.21C724.765 908.429 726.031 908.429 726.812 909.21L766.123 948.521C767.383 949.781 766.491 951.935 764.709 951.935H686.086C684.305 951.935 683.412 949.781 684.672 948.521L723.983 909.21Z" fill="white" fill-opacity="0.5"/>
<path d="M1259.18 1444.4C1259.96 1443.62 1261.23 1443.62 1262.01 1444.4L1301.32 1483.72C1302.58 1484.98 1301.69 1487.13 1299.9 1487.13H1221.28C1219.5 1487.13 1218.61 1484.98 1219.87 1483.72L1259.18 1444.4Z" fill="white" fill-opacity="0.5"/>
<path d="M329.554 1129.91C328.773 1129.13 328.773 1127.86 329.554 1127.08L368.865 1087.77C370.125 1086.51 372.28 1087.4 372.28 1089.18V1167.81C372.28 1169.59 370.125 1170.48 368.865 1169.22L329.554 1129.91Z" fill="white"/>
<path d="M864.749 1665.1C863.968 1664.32 863.968 1663.06 864.749 1662.28L904.06 1622.96C905.32 1621.7 907.474 1622.6 907.474 1624.38V1703C907.474 1704.78 905.32 1705.67 904.06 1704.41L864.749 1665.1Z" fill="white"/>
<path d="M726.812 820.93C726.031 820.149 726.031 818.883 726.812 818.102L766.123 778.79C767.383 777.531 769.537 778.423 769.537 780.205V858.827C769.537 860.609 767.383 861.501 766.123 860.242L726.812 820.93Z" fill="white" fill-opacity="0.75"/>
<path d="M1079.93 467.812C1079.15 467.031 1079.15 465.765 1079.93 464.984L1119.24 425.672C1120.5 424.412 1122.66 425.305 1122.66 427.086V505.709C1122.66 507.491 1120.5 508.383 1119.24 507.123L1079.93 467.812Z" fill="white" fill-opacity="0.75"/>
<path d="M1262.01 1356.13C1261.23 1355.34 1261.23 1354.08 1262.01 1353.3L1301.32 1313.99C1302.58 1312.73 1304.73 1313.62 1304.73 1315.4V1394.02C1304.73 1395.8 1302.58 1396.7 1301.32 1395.44L1262.01 1356.13Z" fill="white" fill-opacity="0.75"/>
<path d="M1615.13 1003.01C1614.34 1002.23 1614.34 1000.96 1615.13 1000.18L1654.44 960.867C1655.7 959.607 1657.85 960.499 1657.85 962.281V1040.9C1657.85 1042.69 1655.7 1043.58 1654.44 1042.32L1615.13 1003.01Z" fill="white" fill-opacity="0.75"/>
<path d="M417.834 1218.19C417.052 1217.41 417.052 1216.14 417.834 1215.36L457.145 1176.05C458.405 1174.79 460.559 1175.68 460.559 1177.46V1256.09C460.559 1257.87 458.405 1258.76 457.145 1257.5L417.834 1218.19Z" fill="white" fill-opacity="0.5"/>
<path d="M953.028 1753.38C952.247 1752.6 952.247 1751.34 953.028 1750.55L992.34 1711.24C993.6 1709.98 995.754 1710.88 995.754 1712.66V1791.28C995.754 1793.06 993.6 1793.95 992.34 1792.69L953.028 1753.38Z" fill="white" fill-opacity="0.5"/>
<path d="M417.834 1041.63C417.052 1040.85 417.052 1039.58 417.834 1038.8L457.145 999.489C458.405 998.229 460.559 999.122 460.559 1000.9V1079.53C460.559 1081.31 458.405 1082.2 457.145 1080.94L417.834 1041.63Z" fill="white"/>
<path d="M953.028 1576.82C952.247 1576.04 952.247 1574.78 953.028 1574L992.34 1534.68C993.6 1533.42 995.754 1534.32 995.754 1536.1V1614.72C995.754 1616.5 993.6 1617.4 992.34 1616.14L953.028 1576.82Z" fill="white"/>
<path d="M815.092 732.651C814.311 731.87 814.311 730.603 815.092 729.822L854.403 690.511C855.663 689.251 857.817 690.143 857.817 691.925V770.548C857.817 772.33 855.663 773.222 854.403 771.962L815.092 732.651Z" fill="white" fill-opacity="0.75"/>
<path d="M1168.21 379.533C1167.43 378.751 1167.43 377.485 1168.21 376.704L1207.52 337.393C1208.78 336.133 1210.94 337.025 1210.94 338.807V417.43C1210.94 419.211 1208.78 420.104 1207.52 418.844L1168.21 379.533Z" fill="white" fill-opacity="0.75"/>
<path d="M1350.29 1267.85C1349.51 1267.06 1349.51 1265.8 1350.29 1265.02L1389.6 1225.71C1390.86 1224.45 1393.01 1225.34 1393.01 1227.12V1305.74C1393.01 1307.52 1390.86 1308.42 1389.6 1307.16L1350.29 1267.85Z" fill="white" fill-opacity="0.75"/>
<path d="M1703.4 914.727C1702.62 913.946 1702.62 912.68 1703.4 911.899L1742.72 872.588C1743.98 871.328 1746.13 872.22 1746.13 874.002V952.624C1746.13 954.406 1743.98 955.299 1742.72 954.039L1703.4 914.727Z" fill="white" fill-opacity="0.75"/>
<path d="M506.113 1129.91C505.332 1129.13 505.332 1127.86 506.113 1127.08L545.424 1087.77C546.684 1086.51 548.839 1087.4 548.839 1089.18V1167.81C548.839 1169.59 546.684 1170.48 545.424 1169.22L506.113 1129.91Z" fill="white" fill-opacity="0.5"/>
<path d="M1041.31 1665.1C1040.53 1664.32 1040.53 1663.06 1041.31 1662.28L1080.62 1622.96C1081.88 1621.7 1084.03 1622.6 1084.03 1624.38V1703C1084.03 1704.78 1081.88 1705.67 1080.62 1704.41L1041.31 1665.1Z" fill="white" fill-opacity="0.5"/>
<path d="M373.694 1085.77C372.913 1084.99 372.913 1083.72 373.694 1082.94L413.005 1043.63C414.265 1042.37 416.419 1043.26 416.419 1045.04V1123.67C416.419 1125.45 414.265 1126.34 413.005 1125.08L373.694 1085.77Z" fill="#A85F00"/>
<path d="M908.889 1620.96C908.108 1620.18 908.108 1618.92 908.889 1618.14L948.2 1578.82C949.46 1577.56 951.614 1578.46 951.614 1580.24V1658.86C951.614 1660.64 949.46 1661.54 948.2 1660.28L908.889 1620.96Z" fill="#A85F00"/>
<path d="M770.952 776.79C770.171 776.009 770.171 774.743 770.952 773.962L810.263 734.651C811.523 733.391 813.677 734.283 813.677 736.065V814.688C813.677 816.469 811.523 817.362 810.263 816.102L770.952 776.79Z" fill="#A85F00" fill-opacity="0.75"/>
<path d="M1124.07 423.672C1123.29 422.891 1123.29 421.625 1124.07 420.844L1163.38 381.532C1164.64 380.273 1166.8 381.165 1166.8 382.947V461.569C1166.8 463.351 1164.64 464.244 1163.38 462.984L1124.07 423.672Z" fill="#A85F00" fill-opacity="0.75"/>
<path d="M1306.15 1311.99C1305.37 1311.2 1305.37 1309.94 1306.15 1309.16L1345.46 1269.85C1346.72 1268.59 1348.87 1269.48 1348.87 1271.26V1349.88C1348.87 1351.66 1346.72 1352.56 1345.46 1351.3L1306.15 1311.99Z" fill="#A85F00" fill-opacity="0.75"/>
<path d="M1659.26 958.867C1658.48 958.086 1658.48 956.82 1659.26 956.039L1698.58 916.727C1699.84 915.467 1701.99 916.36 1701.99 918.142V996.764C1701.99 998.546 1699.84 999.438 1698.58 998.178L1659.26 958.867Z" fill="#A85F00" fill-opacity="0.75"/>
<path d="M461.973 1174.05C461.192 1173.27 461.192 1172 461.973 1171.22L501.285 1131.91C502.545 1130.65 504.699 1131.54 504.699 1133.32V1211.95C504.699 1213.73 502.545 1214.62 501.285 1213.36L461.973 1174.05Z" fill="#A85F00" fill-opacity="0.5"/>
<path d="M997.168 1709.24C996.387 1708.46 996.387 1707.2 997.168 1706.41L1036.48 1667.1C1037.74 1665.84 1039.89 1666.74 1039.89 1668.52V1747.14C1039.89 1748.92 1037.74 1749.81 1036.48 1748.55L997.168 1709.24Z" fill="#A85F00" fill-opacity="0.5"/>
<path d="M613.414 1149.05C612.633 1148.27 612.633 1147 613.414 1146.22L652.726 1106.91C653.985 1105.65 656.14 1106.54 656.14 1108.32V1186.95C656.14 1188.73 653.985 1189.62 652.726 1188.36L613.414 1149.05Z" fill="#A85F00"/>
<path d="M1010.67 840.07C1009.89 839.289 1009.89 838.023 1010.67 837.242L1049.98 797.93C1051.24 796.67 1053.4 797.563 1053.4 799.344V877.967C1053.4 879.749 1051.24 880.641 1049.98 879.381L1010.67 840.07Z" fill="#A85F00" fill-opacity="0.75"/>
<path d="M1363.79 486.952C1363.01 486.171 1363.01 484.904 1363.79 484.123L1403.1 444.812C1404.36 443.552 1406.52 444.444 1406.52 446.226V524.849C1406.52 526.631 1404.36 527.523 1403.1 526.263L1363.79 486.952Z" fill="#A85F00" fill-opacity="0.75"/>
<path d="M1545.87 1375.26C1545.09 1374.48 1545.09 1373.22 1545.87 1372.44L1585.18 1333.13C1586.44 1331.87 1588.59 1332.76 1588.59 1334.54V1413.16C1588.59 1414.94 1586.44 1415.84 1585.18 1414.58L1545.87 1375.26Z" fill="#A85F00" fill-opacity="0.75"/>
<path d="M1898.99 1022.15C1898.2 1021.37 1898.2 1020.1 1898.99 1019.32L1938.3 980.007C1939.56 978.747 1941.71 979.639 1941.71 981.421V1060.04C1941.71 1061.83 1939.56 1062.72 1938.3 1061.46L1898.99 1022.15Z" fill="#A85F00" fill-opacity="0.75"/>
<path d="M701.694 1237.33C700.913 1236.55 700.913 1235.28 701.694 1234.5L741.005 1195.19C742.265 1193.93 744.419 1194.82 744.419 1196.6V1275.23C744.419 1277.01 742.265 1277.9 741.005 1276.64L701.694 1237.33Z" fill="#A85F00" fill-opacity="0.5"/>
<path d="M1236.89 1772.52C1236.11 1771.74 1236.11 1770.48 1236.89 1769.69L1276.2 1730.38C1277.46 1729.12 1279.61 1730.02 1279.61 1731.8V1810.42C1279.61 1812.2 1277.46 1813.09 1276.2 1811.83L1236.89 1772.52Z" fill="#A85F00" fill-opacity="0.5"/>
<path d="M831.285 928.35C832.066 927.569 833.332 927.569 834.113 928.35L873.425 967.661C874.684 968.921 873.792 971.075 872.01 971.075H793.388C791.606 971.075 790.713 968.921 791.973 967.661L831.285 928.35Z" fill="#A85F00"/>
<path d="M1366.48 1463.54C1367.26 1462.76 1368.53 1462.76 1369.31 1463.54L1408.62 1502.86C1409.88 1504.12 1408.99 1506.27 1407.21 1506.27H1328.58C1326.8 1506.27 1325.91 1504.12 1327.17 1502.86L1366.48 1463.54Z" fill="#A85F00"/>
<path d="M1228.54 619.371C1229.32 618.59 1230.59 618.59 1231.37 619.371L1270.68 658.682C1271.94 659.942 1271.05 662.097 1269.27 662.097H1190.65C1188.86 662.097 1187.97 659.942 1189.23 658.682L1228.54 619.371Z" fill="#A85F00" fill-opacity="0.75"/>
<path d="M1581.66 266.253C1582.44 265.472 1583.71 265.472 1584.49 266.253L1623.8 305.564C1625.06 306.824 1624.17 308.978 1622.39 308.978H1543.76C1541.98 308.978 1541.09 306.824 1542.35 305.564L1581.66 266.253Z" fill="#A85F00" fill-opacity="0.75"/>
<path d="M1763.74 1154.57C1764.52 1153.78 1765.79 1153.78 1766.57 1154.57L1805.88 1193.88C1807.14 1195.14 1806.25 1197.29 1804.46 1197.29H1725.84C1724.06 1197.29 1723.17 1195.14 1724.43 1193.88L1763.74 1154.57Z" fill="#A85F00" fill-opacity="0.75"/>
<path d="M2116.86 801.448C2117.64 800.667 2118.9 800.667 2119.68 801.448L2159 840.759C2160.26 842.019 2159.36 844.173 2157.58 844.173H2078.96C2077.18 844.173 2076.28 842.019 2077.54 840.759L2116.86 801.448Z" fill="#A85F00" fill-opacity="0.75"/>
<path d="M919.564 1016.63C920.345 1015.85 921.612 1015.85 922.393 1016.63L961.704 1055.94C962.964 1057.2 962.072 1059.35 960.29 1059.35H881.667C879.885 1059.35 878.993 1057.2 880.253 1055.94L919.564 1016.63Z" fill="#A85F00" fill-opacity="0.5"/>
<path d="M1454.76 1551.82C1455.54 1551.04 1456.81 1551.04 1457.59 1551.82L1496.9 1591.14C1498.16 1592.4 1497.27 1594.55 1495.48 1594.55H1416.86C1415.08 1594.55 1414.19 1592.4 1415.45 1591.14L1454.76 1551.82Z" fill="#A85F00" fill-opacity="0.5"/>
<path d="M919.564 840.07C920.345 839.289 921.612 839.289 922.393 840.07L961.704 879.381C962.964 880.641 962.072 882.796 960.29 882.796H881.667C879.885 882.796 878.993 880.641 880.253 879.381L919.564 840.07Z" fill="#A85F00"/>
<path d="M1454.76 1375.26C1455.54 1374.48 1456.81 1374.48 1457.59 1375.26L1496.9 1414.58C1498.16 1415.84 1497.27 1417.99 1495.48 1417.99H1416.86C1415.08 1417.99 1414.19 1415.84 1415.45 1414.58L1454.76 1375.26Z" fill="#A85F00"/>
<path d="M1316.82 531.092C1317.6 530.311 1318.87 530.311 1319.65 531.092L1358.96 570.403C1360.22 571.663 1359.33 573.817 1357.55 573.817H1278.93C1277.14 573.817 1276.25 571.663 1277.51 570.403L1316.82 531.092Z" fill="#A85F00" fill-opacity="0.75"/>
<path d="M1758.22 89.6938C1759 88.9127 1760.27 88.9127 1761.05 89.6938L1800.36 129.005C1801.62 130.265 1800.73 132.419 1798.95 132.419H1720.32C1718.54 132.419 1717.65 130.265 1718.91 129.005L1758.22 89.6938Z" fill="#A85F00" fill-opacity="0.75"/>
<path d="M2293.41 624.889C2294.2 624.108 2295.46 624.108 2296.24 624.889L2335.55 664.2C2336.81 665.46 2335.92 667.614 2334.14 667.614H2255.52C2253.74 667.614 2252.84 665.46 2254.1 664.2L2293.41 624.889Z" fill="#A85F00" fill-opacity="0.75"/>
<path d="M1669.94 177.973C1670.72 177.192 1671.99 177.192 1672.77 177.973L1712.08 217.285C1713.34 218.545 1712.45 220.699 1710.67 220.699H1632.04C1630.26 220.699 1629.37 218.545 1630.63 217.285L1669.94 177.973Z" fill="#A85F00" fill-opacity="0.75"/>
<path d="M1852.02 1066.29C1852.8 1065.51 1854.06 1065.51 1854.85 1066.29L1894.16 1105.6C1895.42 1106.86 1894.52 1109.01 1892.74 1109.01H1814.12C1812.34 1109.01 1811.45 1106.86 1812.71 1105.6L1852.02 1066.29Z" fill="#A85F00" fill-opacity="0.75"/>
<path d="M2205.14 713.168C2205.92 712.387 2207.18 712.387 2207.96 713.168L2247.28 752.48C2248.54 753.74 2247.64 755.894 2245.86 755.894H2167.24C2165.46 755.894 2164.56 753.74 2165.82 752.48L2205.14 713.168Z" fill="#A85F00" fill-opacity="0.75"/>
<path d="M1007.84 928.35C1008.62 927.569 1009.89 927.569 1010.67 928.35L1049.98 967.661C1051.24 968.921 1050.35 971.075 1048.57 971.075H969.947C968.165 971.075 967.273 968.921 968.532 967.661L1007.84 928.35Z" fill="#A85F00" fill-opacity="0.5"/>
<path d="M1543.04 1463.54C1543.82 1462.76 1545.09 1462.76 1545.87 1463.54L1585.18 1502.86C1586.44 1504.12 1585.55 1506.27 1583.76 1506.27H1505.14C1503.36 1506.27 1502.47 1504.12 1503.73 1502.86L1543.04 1463.54Z" fill="#A85F00" fill-opacity="0.5"/>
<path d="M875.424 884.21C876.205 883.429 877.472 883.429 878.253 884.21L917.564 923.521C918.824 924.781 917.932 926.935 916.15 926.935H837.527C835.745 926.935 834.853 924.781 836.113 923.521L875.424 884.21Z" fill="white"/>
<path d="M1410.62 1419.4C1411.4 1418.62 1412.67 1418.62 1413.45 1419.4L1452.76 1458.72C1454.02 1459.98 1453.13 1462.13 1451.34 1462.13H1372.72C1370.94 1462.13 1370.05 1459.98 1371.31 1458.72L1410.62 1419.4Z" fill="white"/>
<path d="M1272.68 575.231C1273.46 574.45 1274.73 574.45 1275.51 575.231L1314.82 614.543C1316.08 615.803 1315.19 617.957 1313.41 617.957H1234.79C1233 617.957 1232.11 615.803 1233.37 614.543L1272.68 575.231Z" fill="white" fill-opacity="0.75"/>
<path d="M1625.8 222.113C1626.58 221.332 1627.85 221.332 1628.63 222.113L1667.94 261.424C1669.2 262.684 1668.31 264.839 1666.53 264.839H1587.9C1586.12 264.839 1585.23 262.684 1586.49 261.424L1625.8 222.113Z" fill="white" fill-opacity="0.75"/>
<path d="M1807.88 1110.43C1808.66 1109.65 1809.92 1109.65 1810.71 1110.43L1850.02 1149.74C1851.28 1151 1850.38 1153.15 1848.6 1153.15H1769.98C1768.2 1153.15 1767.31 1151 1768.57 1149.74L1807.88 1110.43Z" fill="white" fill-opacity="0.75"/>
<path d="M2161 757.308C2161.78 756.527 2163.04 756.527 2163.82 757.308L2203.14 796.619C2204.4 797.879 2203.5 800.033 2201.72 800.033H2123.1C2121.32 800.033 2120.42 797.879 2121.68 796.619L2161 757.308Z" fill="white" fill-opacity="0.75"/>
<path d="M963.704 972.489C964.485 971.708 965.751 971.708 966.532 972.489L1005.84 1011.8C1007.1 1013.06 1006.21 1015.21 1004.43 1015.21H925.807C924.025 1015.21 923.133 1013.06 924.393 1011.8L963.704 972.489Z" fill="white" fill-opacity="0.5"/>
<path d="M1498.9 1507.68C1499.68 1506.9 1500.95 1506.9 1501.73 1507.68L1541.04 1547C1542.3 1548.26 1541.41 1550.41 1539.62 1550.41H1461C1459.22 1550.41 1458.33 1548.26 1459.59 1547L1498.9 1507.68Z" fill="white" fill-opacity="0.5"/>
<path d="M963.704 795.93C964.485 795.149 965.751 795.149 966.532 795.93L1005.84 835.242C1007.1 836.502 1006.21 838.656 1004.43 838.656H925.807C924.025 838.656 923.133 836.501 924.393 835.242L963.704 795.93Z" fill="white"/>
<path d="M1498.9 1331.13C1499.68 1330.34 1500.95 1330.34 1501.73 1331.13L1541.04 1370.44C1542.3 1371.7 1541.41 1373.85 1539.62 1373.85H1461C1459.22 1373.85 1458.33 1371.7 1459.59 1370.44L1498.9 1331.13Z" fill="white"/>
<path d="M1360.96 486.952C1361.74 486.171 1363.01 486.171 1363.79 486.952L1403.1 526.263C1404.36 527.523 1403.47 529.677 1401.69 529.677H1323.06C1321.28 529.677 1320.39 527.523 1321.65 526.263L1360.96 486.952Z" fill="white" fill-opacity="0.75"/>
<path d="M1802.36 45.5541C1803.14 44.7731 1804.41 44.7731 1805.19 45.5541L1844.5 84.8655C1845.76 86.1254 1844.87 88.2797 1843.09 88.2797H1764.46C1762.68 88.2797 1761.79 86.1254 1763.05 84.8655L1802.36 45.5541Z" fill="white" fill-opacity="0.75"/>
<path d="M2337.55 580.749C2338.34 579.968 2339.6 579.968 2340.38 580.749L2379.69 620.06C2380.95 621.32 2380.06 623.474 2378.28 623.474H2299.66C2297.88 623.474 2296.98 621.32 2298.24 620.06L2337.55 580.749Z" fill="white" fill-opacity="0.75"/>
<path d="M1714.08 133.834C1714.86 133.052 1716.13 133.052 1716.91 133.834L1756.22 173.145C1757.48 174.405 1756.59 176.559 1754.81 176.559H1676.18C1674.4 176.559 1673.51 174.405 1674.77 173.145L1714.08 133.834Z" fill="white" fill-opacity="0.75"/>
<path d="M1896.16 1022.15C1896.94 1021.37 1898.2 1021.37 1898.99 1022.15L1938.3 1061.46C1939.56 1062.72 1938.66 1064.87 1936.88 1064.87H1858.26C1856.48 1064.87 1855.59 1062.72 1856.85 1061.46L1896.16 1022.15Z" fill="white" fill-opacity="0.75"/>
<path d="M2249.27 669.028C2250.06 668.247 2251.32 668.247 2252.1 669.028L2291.41 708.34C2292.67 709.6 2291.78 711.754 2290 711.754H2211.38C2209.6 711.754 2208.7 709.6 2209.96 708.34L2249.27 669.028Z" fill="white" fill-opacity="0.75"/>
<path d="M1051.98 884.21C1052.76 883.429 1054.03 883.429 1054.81 884.21L1094.12 923.521C1095.38 924.781 1094.49 926.935 1092.71 926.935H1014.09C1012.3 926.935 1011.41 924.781 1012.67 923.521L1051.98 884.21Z" fill="white" fill-opacity="0.5"/>
<path d="M1587.18 1419.4C1587.96 1418.62 1589.23 1418.62 1590.01 1419.4L1629.32 1458.72C1630.58 1459.98 1629.69 1462.13 1627.9 1462.13H1549.28C1547.5 1462.13 1546.61 1459.98 1547.87 1458.72L1587.18 1419.4Z" fill="white" fill-opacity="0.5"/>
<path d="M657.554 1104.91C656.773 1104.13 656.773 1102.86 657.554 1102.08L696.865 1062.77C698.125 1061.51 700.28 1062.4 700.28 1064.18V1142.81C700.28 1144.59 698.125 1145.48 696.865 1144.22L657.554 1104.91Z" fill="white"/>
<path d="M1192.75 1640.1C1191.97 1639.32 1191.97 1638.06 1192.75 1637.28L1232.06 1597.96C1233.32 1596.7 1235.47 1597.6 1235.47 1599.38V1678C1235.47 1679.78 1233.32 1680.67 1232.06 1679.41L1192.75 1640.1Z" fill="white"/>
<path d="M1054.81 795.93C1054.03 795.149 1054.03 793.883 1054.81 793.102L1094.12 753.79C1095.38 752.531 1097.54 753.423 1097.54 755.205V833.827C1097.54 835.609 1095.38 836.501 1094.12 835.242L1054.81 795.93Z" fill="white" fill-opacity="0.75"/>
<path d="M1407.93 442.812C1407.15 442.031 1407.15 440.765 1407.93 439.984L1447.24 400.672C1448.5 399.412 1450.66 400.305 1450.66 402.086V480.709C1450.66 482.491 1448.5 483.383 1447.24 482.123L1407.93 442.812Z" fill="white" fill-opacity="0.75"/>
<path d="M1590.01 1331.13C1589.23 1330.34 1589.23 1329.08 1590.01 1328.3L1629.32 1288.99C1630.58 1287.73 1632.73 1288.62 1632.73 1290.4V1369.02C1632.73 1370.8 1630.58 1371.7 1629.32 1370.44L1590.01 1331.13Z" fill="white" fill-opacity="0.75"/>
<path d="M1943.13 978.007C1942.34 977.226 1942.34 975.959 1943.13 975.178L1982.44 935.867C1983.7 934.607 1985.85 935.499 1985.85 937.281V1015.9C1985.85 1017.69 1983.7 1018.58 1982.44 1017.32L1943.13 978.007Z" fill="white" fill-opacity="0.75"/>
<path d="M745.834 1193.19C745.053 1192.41 745.053 1191.14 745.834 1190.36L785.145 1151.05C786.405 1149.79 788.559 1150.68 788.559 1152.46V1231.09C788.559 1232.87 786.405 1233.76 785.145 1232.5L745.834 1193.19Z" fill="white" fill-opacity="0.5"/>
<path d="M1281.03 1728.38C1280.25 1727.6 1280.25 1726.34 1281.03 1725.55L1320.34 1686.24C1321.6 1684.98 1323.75 1685.88 1323.75 1687.66V1766.28C1323.75 1768.06 1321.6 1768.95 1320.34 1767.69L1281.03 1728.38Z" fill="white" fill-opacity="0.5"/>
<path d="M745.834 1016.63C745.053 1015.85 745.053 1014.58 745.834 1013.8L785.145 974.489C786.405 973.229 788.559 974.122 788.559 975.904V1054.53C788.559 1056.31 786.405 1057.2 785.145 1055.94L745.834 1016.63Z" fill="white"/>
<path d="M1281.03 1551.82C1280.25 1551.04 1280.25 1549.78 1281.03 1549L1320.34 1509.68C1321.6 1508.42 1323.75 1509.32 1323.75 1511.1V1589.72C1323.75 1591.5 1321.6 1592.4 1320.34 1591.14L1281.03 1551.82Z" fill="white"/>
<path d="M1143.09 707.651C1142.31 706.87 1142.31 705.603 1143.09 704.822L1182.4 665.511C1183.66 664.251 1185.82 665.143 1185.82 666.925V745.548C1185.82 747.33 1183.66 748.222 1182.4 746.962L1143.09 707.651Z" fill="white" fill-opacity="0.75"/>
<path d="M1496.21 354.533C1495.43 353.751 1495.43 352.485 1496.21 351.704L1535.52 312.393C1536.78 311.133 1538.94 312.025 1538.94 313.807V392.43C1538.94 394.211 1536.78 395.104 1535.52 393.844L1496.21 354.533Z" fill="white" fill-opacity="0.75"/>
<path d="M1678.29 1242.85C1677.51 1242.06 1677.51 1240.8 1678.29 1240.02L1717.6 1200.71C1718.86 1199.45 1721.01 1200.34 1721.01 1202.12V1280.74C1721.01 1282.52 1718.86 1283.42 1717.6 1282.16L1678.29 1242.85Z" fill="white" fill-opacity="0.75"/>
<path d="M2031.4 889.727C2030.62 888.946 2030.62 887.68 2031.4 886.899L2070.72 847.588C2071.98 846.328 2074.13 847.22 2074.13 849.002V927.624C2074.13 929.406 2071.98 930.299 2070.72 929.039L2031.4 889.727Z" fill="white" fill-opacity="0.75"/>
<path d="M834.113 1104.91C833.332 1104.13 833.332 1102.86 834.113 1102.08L873.425 1062.77C874.684 1061.51 876.839 1062.4 876.839 1064.18V1142.81C876.839 1144.59 874.684 1145.48 873.425 1144.22L834.113 1104.91Z" fill="white" fill-opacity="0.5"/>
<path d="M1369.31 1640.1C1368.53 1639.32 1368.53 1638.06 1369.31 1637.28L1408.62 1597.96C1409.88 1596.7 1412.03 1597.6 1412.03 1599.38V1678C1412.03 1679.78 1409.88 1680.67 1408.62 1679.41L1369.31 1640.1Z" fill="white" fill-opacity="0.5"/>
<path d="M701.694 1060.77C700.913 1059.99 700.913 1058.72 701.694 1057.94L741.005 1018.63C742.265 1017.37 744.419 1018.26 744.419 1020.04V1098.67C744.419 1100.45 742.265 1101.34 741.005 1100.08L701.694 1060.77Z" fill="#A85F00"/>
<path d="M1236.89 1595.96C1236.11 1595.18 1236.11 1593.92 1236.89 1593.14L1276.2 1553.82C1277.46 1552.56 1279.61 1553.46 1279.61 1555.24V1633.86C1279.61 1635.64 1277.46 1636.54 1276.2 1635.28L1236.89 1595.96Z" fill="#A85F00"/>
<path d="M1098.95 751.79C1098.17 751.009 1098.17 749.743 1098.95 748.962L1138.26 709.651C1139.52 708.391 1141.68 709.283 1141.68 711.065V789.688C1141.68 791.469 1139.52 792.362 1138.26 791.102L1098.95 751.79Z" fill="#A85F00" fill-opacity="0.75"/>
<path d="M1452.07 398.672C1451.29 397.891 1451.29 396.625 1452.07 395.844L1491.38 356.532C1492.64 355.273 1494.8 356.165 1494.8 357.947V436.569C1494.8 438.351 1492.64 439.244 1491.38 437.984L1452.07 398.672Z" fill="#A85F00" fill-opacity="0.75"/>
<path d="M1634.15 1286.99C1633.37 1286.2 1633.37 1284.94 1634.15 1284.16L1673.46 1244.85C1674.72 1243.59 1676.87 1244.48 1676.87 1246.26V1324.88C1676.87 1326.66 1674.72 1327.56 1673.46 1326.3L1634.15 1286.99Z" fill="#A85F00" fill-opacity="0.75"/>
<path d="M1987.26 933.867C1986.48 933.086 1986.48 931.82 1987.26 931.039L2026.58 891.727C2027.84 890.467 2029.99 891.36 2029.99 893.142V971.764C2029.99 973.546 2027.84 974.438 2026.58 973.178L1987.26 933.867Z" fill="#A85F00" fill-opacity="0.75"/>
<path d="M789.973 1149.05C789.192 1148.27 789.192 1147 789.973 1146.22L829.285 1106.91C830.545 1105.65 832.699 1106.54 832.699 1108.32V1186.95C832.699 1188.73 830.545 1189.62 829.285 1188.36L789.973 1149.05Z" fill="#A85F00" fill-opacity="0.5"/>
<path d="M1325.17 1684.24C1324.39 1683.46 1324.39 1682.2 1325.17 1681.41L1364.48 1642.1C1365.74 1640.84 1367.89 1641.74 1367.89 1643.52V1722.14C1367.89 1723.92 1365.74 1724.81 1364.48 1723.55L1325.17 1684.24Z" fill="#A85F00" fill-opacity="0.5"/>
</svg>
