<svg width="29" height="29" viewBox="0 0 29 29" fill="none" xmlns="http://www.w3.org/2000/svg">
<g clip-path="url(#clip0_27_63)">
<mask id="mask0_27_63" style="mask-type:luminance" maskUnits="userSpaceOnUse" x="0" y="0" width="29" height="29">
<path d="M29 0H0V29H29V0Z" fill="white"/>
</mask>
<g mask="url(#mask0_27_63)">
<path d="M9.66671 29C12.3348 29 14.5001 26.8346 14.5001 24.1666V19.3333H9.66671C6.99871 19.3333 4.83331 21.4986 4.83331 24.1666C4.83331 26.8346 6.99871 29 9.66671 29Z" fill="#0ACF83"/>
<path d="M4.83331 14.5C4.83331 11.832 6.99871 9.66663 9.66671 9.66663H14.5001V19.3332H9.66671C6.99871 19.3334 4.83331 17.168 4.83331 14.5Z" fill="#A259FF"/>
<path d="M4.83331 4.83337C4.83331 2.16537 6.99871 0 9.66671 0H14.5001V9.66661H9.66671C6.99871 9.66661 4.83331 7.50139 4.83331 4.83337Z" fill="#F24E1E"/>
<path d="M14.4999 0H19.3333C22.0013 0 24.1667 2.16537 24.1667 4.83337C24.1667 7.50139 22.0013 9.66661 19.3333 9.66661H14.4999V0Z" fill="#FF7262"/>
<path d="M24.1667 14.5C24.1667 17.168 22.0013 19.3334 19.3333 19.3334C16.6652 19.3334 14.4999 17.168 14.4999 14.5C14.4999 11.832 16.6652 9.66663 19.3333 9.66663C22.0013 9.66663 24.1667 11.832 24.1667 14.5Z" fill="#1ABCFE"/>
</g>
</g>
<defs>
<clipPath id="clip0_27_63">
<rect width="29" height="29" fill="white"/>
</clipPath>
</defs>
</svg>
