<svg width="74" height="18" viewBox="0 0 74 18" fill="none" xmlns="http://www.w3.org/2000/svg">
<path d="M4.99432 17.4546L-1.37091e-06 4.3869e-05H4.03125L6.92045 12.1279H7.06534L10.2528 4.3869e-05H13.7045L16.8835 12.1535H17.0369L19.9261 4.3869e-05H23.9574L18.9631 17.4546H15.3665L12.0426 6.04266H11.9062L8.59091 17.4546H4.99432ZM29.8615 17.4546L24.8672 4.3869e-05H28.8984L31.7876 12.1279H31.9325L35.12 4.3869e-05H38.5717L41.7507 12.1535H41.9041L44.7933 4.3869e-05H48.8246L43.8303 17.4546H40.2337L36.9098 6.04266H36.7734L33.4581 17.4546H29.8615ZM54.7287 17.4546L49.7344 4.3869e-05H53.7656L56.6548 12.1279H56.7997L59.9872 4.3869e-05H63.4389L66.6179 12.1535H66.7713L69.6605 4.3869e-05H73.6918L68.6974 17.4546H65.1009L61.777 6.04266H61.6406L58.3253 17.4546H54.7287Z" fill="#101010"/>
</svg>
