<svg width="29" height="29" viewBox="0 0 29 29" fill="none" xmlns="http://www.w3.org/2000/svg">
<g clip-path="url(#clip0_28_78)">
<mask id="mask0_28_78" style="mask-type:luminance" maskUnits="userSpaceOnUse" x="0" y="0" width="29" height="29">
<path d="M29 0H0V29H29V0Z" fill="white"/>
</mask>
<g mask="url(#mask0_28_78)">
<path d="M28.4224 7.47405C28.2584 6.85708 27.9353 6.29405 27.4853 5.84118C27.0354 5.38834 26.4744 5.06162 25.8585 4.89372C23.5912 4.28406 14.5287 4.28406 14.5287 4.28406C14.5287 4.28406 5.46625 4.28406 3.19897 4.89372C2.58308 5.06162 2.02209 5.38834 1.57214 5.84118C1.12219 6.29405 0.799068 6.85708 0.635109 7.47405C0.0287476 9.75122 0.0287476 14.5 0.0287476 14.5C0.0287476 14.5 0.0287476 19.2487 0.635109 21.5259C0.799068 22.1429 1.12219 22.7059 1.57214 23.1588C2.02209 23.6116 2.58308 23.9383 3.19897 24.1062C5.46625 24.7159 14.5287 24.7159 14.5287 24.7159C14.5287 24.7159 23.5912 24.7159 25.8585 24.1062C26.4744 23.9383 27.0354 23.6116 27.4853 23.1588C27.9353 22.7059 28.2584 22.1429 28.4224 21.5259C29.0287 19.2487 29.0287 14.5 29.0287 14.5C29.0287 14.5 29.0287 9.75122 28.4224 7.47405Z" fill="#FF0302"/>
<path d="M11.5628 18.812V10.1879L19.1424 14.5L11.5628 18.812Z" fill="#FEFEFE"/>
</g>
</g>
<defs>
<clipPath id="clip0_28_78">
<rect width="29" height="29" fill="white"/>
</clipPath>
</defs>
</svg>
