<svg width="50" height="50" viewBox="0 0 50 50" fill="none" xmlns="http://www.w3.org/2000/svg">
<g clip-path="url(#clip0_26_7)">
<mask id="mask0_26_7" style="mask-type:luminance" maskUnits="userSpaceOnUse" x="0" y="0" width="50" height="50">
<path d="M50 0H0V50H50V0Z" fill="white"/>
</mask>
<g mask="url(#mask0_26_7)">
<path d="M8.85417 4.03008e-06H41.1457C42.309 -0.00112026 43.4608 0.233004 44.5355 0.68898C45.6102 1.14495 46.5868 1.81383 47.409 2.65733C48.2315 3.5008 48.8838 4.50235 49.3283 5.60465C49.7728 6.70692 50.001 7.88832 50 9.0812V40.9188C50.001 42.1118 49.7728 43.293 49.3283 44.3952C48.8838 45.4977 48.2315 46.4993 47.409 47.3428C46.5868 48.1862 45.6102 48.855 44.5355 49.311C43.4608 49.767 42.309 50.001 41.1457 50H8.85417C7.69112 50.001 6.53925 49.767 5.46453 49.311C4.3898 48.855 3.4133 48.1862 2.59087 47.3428C1.76848 46.4993 1.11633 45.4977 0.671755 44.3952C0.227179 43.293 -0.00109226 42.1118 3.92932e-06 40.9188V9.0812C-0.00109226 7.88832 0.227179 6.70692 0.671755 5.60465C1.11633 4.50235 1.76848 3.5008 2.59087 2.65733C3.4133 1.81383 4.3898 1.14495 5.46453 0.68898C6.53925 0.233004 7.69112 -0.00112026 8.85417 4.03008e-06Z" fill="#F16529"/>
<path d="M17.2499 14.99H25.0165V9.5H11.25L11.3813 10.9728L12.7308 26.102H25.0165V20.6119H17.7517L17.2499 14.99ZM18.4872 28.847H12.9761L13.7451 37.4673L24.9911 40.589L25.0165 40.582V34.8703L24.9923 34.8765L18.8782 33.2255L18.4872 28.847Z" fill="#EBEBEB"/>
<path d="M24.9975 26.102H31.758L31.1205 33.222L24.9973 34.8747V40.5865L36.2522 37.4673L36.3347 36.5397L37.625 22.0861L37.759 20.6119H24.9975V26.102ZM24.9975 14.9766V14.99H38.2585L38.3685 13.7561L38.6187 10.9728L38.75 9.5H24.9975V14.9766Z" fill="white"/>
</g>
</g>
<defs>
<clipPath id="clip0_26_7">
<rect width="50" height="50" fill="white"/>
</clipPath>
</defs>
</svg>
