<svg width="50" height="50" viewBox="0 0 50 50" fill="none" xmlns="http://www.w3.org/2000/svg">
<g clip-path="url(#clip0_26_25)">
<mask id="mask0_26_25" style="mask-type:luminance" maskUnits="userSpaceOnUse" x="0" y="0" width="50" height="50">
<path d="M50 0H0V50H50V0Z" fill="white"/>
</mask>
<g mask="url(#mask0_26_25)">
<path d="M8.85417 4.03008e-06H41.1457C42.309 -0.00112026 43.4608 0.233004 44.5355 0.68898C45.6102 1.14495 46.5868 1.81383 47.409 2.65733C48.2315 3.5008 48.8838 4.50235 49.3283 5.60465C49.7728 6.70692 50.001 7.88832 50 9.0812V40.9188C50.001 42.1118 49.7728 43.293 49.3283 44.3952C48.8838 45.4977 48.2315 46.4993 47.409 47.3428C46.5868 48.1862 45.6102 48.855 44.5355 49.311C43.4608 49.767 42.309 50.001 41.1457 50H8.85417C7.69112 50.001 6.53925 49.767 5.46453 49.311C4.3898 48.855 3.4133 48.1862 2.59087 47.3428C1.76848 46.4993 1.11633 45.4977 0.671755 44.3952C0.227179 43.293 -0.00109226 42.1118 3.92932e-06 40.9188V9.0812C-0.00109226 7.88832 0.227179 6.70692 0.671755 5.60465C1.11633 4.50235 1.76848 3.5008 2.59087 2.65733C3.4133 1.81383 4.3898 1.14495 5.46453 0.68898C6.53925 0.233004 7.69112 -0.00112026 8.85417 4.03008e-06Z" fill="#F7DF1E"/>
<path d="M33.6722 39.123C34.6792 40.7675 35.9897 41.9762 38.3073 41.9762C40.254 41.9762 41.4975 41.0032 41.4975 39.6587C41.4975 38.0475 40.2197 37.477 38.077 36.5397L36.9025 36.0358C33.512 34.5913 31.2595 32.7817 31.2595 28.9562C31.2595 25.4325 33.9445 22.75 38.1405 22.75C41.1277 22.75 43.2755 23.7897 44.823 26.512L41.1642 28.861C40.3587 27.4167 39.4897 26.8475 38.1405 26.8475C36.7642 26.8475 35.892 27.7207 35.892 28.861C35.892 30.2708 36.765 30.8413 38.781 31.7143L39.9555 32.2175C43.9475 33.9292 46.2015 35.6745 46.2015 39.5985C46.2015 43.8285 42.8785 46.146 38.4157 46.146C34.0525 46.146 31.2332 44.0668 29.854 41.3413L33.6722 39.123ZM17.0746 39.5303C17.8127 40.8398 18.4841 41.9468 20.0984 41.9468C21.6421 41.9468 22.6159 41.3427 22.6159 38.9945V23.0182H27.3143V39.058C27.3143 43.923 24.4619 46.1372 20.2984 46.1372C16.5365 46.1372 14.3579 44.1905 13.25 41.8457L17.0746 39.5303Z" fill="black"/>
</g>
</g>
<defs>
<clipPath id="clip0_26_25">
<rect width="50" height="50" fill="white"/>
</clipPath>
</defs>
</svg>
